# xmcd
#
# Track frame offsets: 
#        150
#        26097
#        41341
#        58657
#        83297
#        95153
#        110887
#        127709
#        144130
#        154973
#        172683
#        188558
#        202942
#        228990
#        242264
#        256549
#        272261
#        289421
#
# Disc length: 4109 seconds
#
# Revision: 1
# Processed by: cddbd v1.5.2PL0 Copyright (c) Steve Scherf et al.
# Submitted via: ExactAudioCopy v0.99pb5
#
DISCID=da100b12
DTITLE=Harry's Satchmo All Stars - A Tribute To Louis Armstrong
DYEAR=1999
DGENRE=Jazz
TTITLE0=New Orleans Function
TTITLE1=Moon River
TTITLE2=Jeepers Creepers
TTITLE3=On The Sunny Side Of The Street
TTITLE4=High Society Calipso
TTITLE5=Muskrat Ramble
TTITLE6=Dream A Little Dream Of Me
TTITLE7=Mack The Knife
TTITLE8=It's Been A Long Time
TTITLE9=Don't Get Around Much Anymore
TTITLE10=You Can Depend On Me
TTITLE11=You Rascal You
TTITLE12=A Kiss To Build A Dream On
TTITLE13=Stompin At The Savoy
TTITLE14=Hello Dolly
TTITLE15=Save It Pretty Mama
TTITLE16=Sweethearts On Parade
TTITLE17=What A Wonderful World
EXTD=YEAR: 1999
EXTT0=
EXTT1=
EXTT2=
EXTT3=
EXTT4=
EXTT5=
EXTT6=
EXTT7=
EXTT8=
EXTT9=
EXTT10=
EXTT11=
EXTT12=
EXTT13=
EXTT14=
EXTT15=
EXTT16=
EXTT17=
PLAYORDER=
